<svg viewBox="0 0 279 239" fill="none" xmlns="http://www.w3.org/2000/svg">
<path fill-rule="evenodd" clip-rule="evenodd" d="M140 239C195.228 239 240 194.228 240 139C240 83.7715 195.228 39 140 39C84.7715 39 40 83.7715 40 139C40 194.228 84.7715 239 140 239ZM140 209C178.66 209 210 177.66 210 139C210 100.34 178.66 69 140 69C101.34 69 70 100.34 70 139C70 177.66 101.34 209 140 209Z" fill="#0f172a"/>
<path d="M261.426 102.426C272.679 91.1742 279 75.913 279 60C279 44.087 272.679 28.8258 261.426 17.5736C250.174 6.32142 234.913 2.86125e-06 219 0C203.087 -2.86125e-06 187.826 6.3214 176.574 17.5736L219 60L261.426 102.426Z" fill="currentColor"/>
<path d="M102.426 17.5736C96.8549 12.0021 90.2405 7.5825 82.961 4.56722C75.6815 1.55194 67.8793 -1.78461e-06 60 0C52.1207 1.78462e-06 44.3185 1.55195 37.039 4.56723C29.7594 7.58252 23.1451 12.0021 17.5736 17.5736C12.0021 23.1451 7.5825 29.7595 4.56722 37.039C1.55194 44.3186 -3.06831e-06 52.1207 0 60C3.06832e-06 67.8793 1.55195 75.6815 4.56724 82.961C7.58252 90.2406 12.0021 96.8549 17.5736 102.426L60 60L102.426 17.5736Z" fill="#0f172a"/>
<path d="M129.607 148.104C123.749 142.246 123.749 132.749 129.607 126.891L157.891 98.6066C163.749 92.7487 173.246 92.7487 179.104 98.6066V98.6066C184.962 104.464 184.962 113.962 179.104 119.82L150.82 148.104C144.962 153.962 135.464 153.962 129.607 148.104V148.104Z" fill="#0f172a"/>
</svg>
